# xmcd CD database file
#
# Track frame offsets:
#	150
#	18054
#	34890
#	56783
#	66718
#	83463
#	94615
#	114095
#	127322
#	145205
#	166711
#	185483
#	207540
#	226999
#
# Disc length: 3462 seconds
#
# Revision: 1
# Processed by: cddbd v1.5.2PL0 Copyright (c) Steve Scherf et al.
# Submitted via: CDex 1.70beta2
#
DISCID=be0d840e
DTITLE=Various Artist - Yeh Yeh Vacances
DYEAR=2003
DGENRE=Pop
TTITLE0=Bum Bum Boogie
TTITLE1=Nitty Gritty
TTITLE2=Tee Tee Coco
TTITLE3=Dentro I’Atelier
TTITLE4=Twist Druma [Tokyo Radio Mix]
TTITLE5=You’ve Been Gone Too Long
TTITLE6=I Can Be
TTITLE7=La Decisione
TTITLE8=Jump Up
TTITLE9=The Bone Part 2
TTITLE10=Citron Presse
TTITLE11=The Catwalk
TTITLE12=Bikini Theme
TTITLE13=I Was A Yeh Yeh Girl Remix
EXTD=YEAR: 2003
EXTT0=
EXTT1=
EXTT2=
EXTT3=
EXTT4=
EXTT5=
EXTT6=
EXTT7=
EXTT8=
EXTT9=
EXTT10=
EXTT11=
EXTT12=
EXTT13=
PLAYORDER=
